<?xml version="1.0" standalone="no"?>
<!DOCTYPE svg PUBLIC "-//W3C//DTD SVG 20010904//EN"
 "http://www.w3.org/TR/2001/REC-SVG-20010904/DTD/svg10.dtd">
<svg version="1.0" xmlns="http://www.w3.org/2000/svg"
 width="500.000000pt" height="500.000000pt" viewBox="0 0 500.000000 500.000000"
 preserveAspectRatio="xMidYMid meet">

<g transform="translate(0.000000,500.000000) scale(0.100000,-0.100000)"
fill="#000000" stroke="none">
<path d="M2295 3925 c-453 -79 -795 -327 -1015 -738 -23 -44 -39 -81 -37 -84
12 -11 78 64 120 136 94 161 248 323 411 432 218 147 451 223 719 236 89 5
117 9 117 19 0 18 -212 17 -315 -1z"/>
<path d="M2425 3860 c-26 -5 6 -7 90 -7 79 -1 118 2 100 7 -37 10 -137 10
-190 0z"/>
<path d="M2920 3860 c-13 -9 -13 -11 0 -20 8 -5 22 -10 30 -10 8 0 26 -9 40
-20 l25 -20 -30 0 c-17 0 -56 9 -87 20 -31 11 -83 22 -115 25 -55 5 -53 4 37
-20 114 -31 232 -81 317 -135 55 -34 67 -38 87 -28 20 9 31 7 59 -11 34 -21
77 -28 77 -13 0 26 -347 222 -393 222 -7 0 -17 4 -23 10 -6 6 -15 6 -24 0z"/>
<path d="M2698 3843 c7 -3 16 -2 19 1 4 3 -2 6 -13 5 -11 0 -14 -3 -6 -6z"/>
<path d="M3460 3375 c-97 -96 -175 -165 -186 -165 -15 0 -12 4 11 19 32 20
104 91 105 104 0 4 0 12 0 18 0 5 6 7 13 3 8 -5 8 -2 -2 9 -14 18 -26 23 -16
8 3 -5 1 -12 -5 -16 -6 -3 -10 4 -11 17 0 13 -3 17 -6 11 -3 -10 -12 -9 -36 4
-18 9 -38 16 -46 14 -7 -1 -10 2 -6 8 3 6 -2 11 -13 11 -11 0 -22 9 -25 20 -3
11 -23 28 -46 38 -23 11 -38 22 -34 25 3 4 -1 7 -11 7 -9 0 -14 5 -11 10 4 7
-156 10 -473 10 -416 0 -485 -2 -518 -16 -47 -19 -396 -361 -424 -415 -10 -20
-37 -105 -60 -190 l-42 -155 80 -84 c44 -47 101 -107 126 -135 26 -27 60 -69
76 -91 16 -23 37 -44 45 -48 22 -8 580 -8 588 0 8 8 -11 44 -34 65 -30 26
-256 237 -346 323 -79 76 -83 81 -81 120 1 36 2 37 5 9 2 -17 11 -37 19 -43
12 -11 14 -7 14 21 0 30 13 47 103 136 56 56 114 107 129 112 17 6 205 12 466
15 378 4 445 7 480 22 44 17 152 124 246 243 27 35 68 77 90 92 26 19 33 29
21 29 -9 0 -92 -74 -185 -165z m-298 -172 c-40 -2 -103 -2 -140 0 -37 2 -4 3
73 3 77 0 107 -2 67 -3z"/>
<path d="M1513 3375 c-3 -9 -3 -18 -1 -21 7 -7 38 7 38 17 0 4 -7 5 -17 2 -11
-4 -14 -3 -9 5 4 7 5 12 1 12 -3 0 -8 -7 -12 -15z"/>
<path d="M3621 3263 l-21 -18 44 -87 c48 -97 98 -246 116 -350 l12 -67 34 40
c40 48 40 41 -18 215 -40 120 -113 274 -134 281 -6 2 -21 -4 -33 -14z"/>
<path d="M1437 2853 c-12 -11 -8 -23 8 -23 8 0 15 7 15 15 0 16 -12 20 -23 8z"/>
<path d="M4276 2811 c-11 -17 14 -42 38 -39 12 2 22 12 24 23 2 18 2 18 -8 3
-15 -24 -29 -23 -39 4 -5 15 -10 18 -15 9z"/>
<path d="M2537 2619 c228 -225 318 -319 341 -358 17 -29 22 -32 28 -18 3 9 3
24 0 33 -3 8 -2 12 4 9 6 -3 10 -18 10 -32 0 -20 -21 -47 -87 -110 -49 -46
-101 -91 -118 -101 -26 -15 -77 -18 -430 -23 -323 -6 -412 -10 -465 -23 -35
-9 -79 -17 -97 -18 -32 -1 -89 -53 -303 -274 -2 -3 2 -9 10 -14 12 -8 10 -10
-8 -10 -28 0 -62 -17 -62 -30 0 -6 37 -10 85 -10 96 0 128 -11 161 -57 28 -38
177 -139 282 -192 81 -41 85 -42 109 -25 l26 16 -99 50 c-95 47 -283 166 -284
179 -1 20 88 24 625 29 l590 5 47 23 c66 33 397 361 426 423 20 41 38 107 72
264 6 28 15 63 20 78 8 26 3 35 -70 115 -43 48 -108 116 -144 152 l-67 65
-380 5 -380 5 158 -156z"/>
<path d="M672 2757 c-16 -19 1 -39 29 -35 25 3 34 38 12 45 -7 3 -9 -3 -6 -16
4 -15 1 -21 -12 -21 -12 0 -16 6 -12 20 6 23 4 25 -11 7z"/>
<path d="M1152 2590 c-20 -32 -15 -70 8 -70 17 0 20 7 20 45 0 49 -8 56 -28
25z"/>
<path d="M3634 2505 c-7 -17 3 -35 19 -35 8 0 7 3 -2 9 -8 5 -10 14 -6 21 6
10 11 9 22 -5 11 -16 13 -16 13 -3 0 9 -7 19 -16 22 -22 8 -24 8 -30 -9z"/>
<path d="M1232 2435 c0 -16 2 -22 5 -12 2 9 2 23 0 30 -3 6 -5 -1 -5 -18z"/>
<path d="M3796 2398 c-9 -12 -16 -29 -16 -38 -1 -8 -9 -38 -19 -67 l-18 -52
28 20 c21 14 30 33 38 72 9 49 11 87 5 87 -2 0 -10 -10 -18 -22z"/>
<path d="M1166 2368 c-16 -25 -9 -60 44 -218 25 -73 118 -260 130 -260 4 0 13
7 20 15 9 11 1 36 -43 127 -55 112 -101 242 -113 318 -7 45 -17 50 -38 18z"/>
<path d="M3550 2350 c0 -5 7 -10 16 -10 8 0 12 5 9 10 -3 6 -10 10 -16 10 -5
0 -9 -4 -9 -10z"/>
<path d="M1281 2214 c0 -11 3 -14 6 -6 3 7 2 16 -1 19 -3 4 -6 -2 -5 -13z"/>
<path d="M3746 2159 c-15 -12 -48 -62 -73 -113 -178 -355 -481 -605 -853 -706
-122 -32 -291 -51 -391 -42 -51 4 -57 3 -62 -17 -7 -27 -2 -29 79 -37 120 -11
339 24 494 78 319 113 596 346 750 631 33 60 100 211 100 223 0 10 -20 2 -44
-17z"/>
<path d="M1310 2131 c0 -6 4 -13 10 -16 6 -3 7 1 4 9 -7 18 -14 21 -14 7z"/>
<path d="M3612 2070 c-8 -13 -8 -20 -2 -20 6 0 13 7 17 15 9 24 -1 27 -15 5z"/>
<path d="M1370 2010 c11 -22 23 -40 25 -40 3 0 -4 18 -15 40 -11 22 -23 40
-25 40 -3 0 4 -18 15 -40z"/>
<path d="M1967 1459 c7 -7 15 -10 18 -7 3 3 -2 9 -12 12 -14 6 -15 5 -6 -5z"/>
<path d="M2010 1440 c8 -5 20 -10 25 -10 6 0 3 5 -5 10 -8 5 -19 10 -25 10 -5
0 -3 -5 5 -10z"/>
</g>
</svg>
